<?xml version="1.0" encoding="iso-8859-1"?>
<!-- Generator: Adobe Illustrator 19.0.0, SVG Export Plug-In . SVG Version: 6.00 Build 0)  -->
<svg version="1.1" id="Layer_1" xmlns="http://www.w3.org/2000/svg" xmlns:xlink="http://www.w3.org/1999/xlink" x="0px" y="0px"
	 viewBox="0 0 502 502" style="enable-background:new 0 0 502 502;" xml:space="preserve">
<g>
	<g>
		<g>
			<path d="M258.546,3.438C256.646,1.254,253.895,0,251,0c-2.894,0-5.646,1.254-7.545,3.438
				c-6.419,7.38-157.191,181.758-157.191,269.943c0,90.836,73.9,164.736,164.736,164.736s164.736-73.9,164.736-164.736
				C415.736,185.197,264.964,10.818,258.546,3.438z M251,418.116c-79.807,0-144.736-64.928-144.736-144.736
				c0-32.853,26.093-87.439,75.458-157.857c27.94-39.855,56.176-74.43,69.278-90.07c13.083,15.615,41.254,50.11,69.18,89.932
				c49.429,70.484,75.556,125.118,75.556,157.995C395.736,353.187,330.807,418.116,251,418.116z"/>
			<path d="M141.916,291.261c-1.136-6.444-1.712-13.058-1.712-19.659c0-5.522-4.477-10-10-10s-10,4.478-10,10
				c0,7.762,0.679,15.544,2.016,23.132c0.855,4.852,5.074,8.266,9.836,8.266c0.576,0,1.161-0.051,1.748-0.154
				C139.243,301.887,142.875,296.7,141.916,291.261z"/>
			<path d="M195.117,368.21c-18.008-10.741-32.635-26.24-42.3-44.821c-2.548-4.9-8.587-6.805-13.486-4.258
				c-4.9,2.548-6.806,8.587-4.257,13.486c11.38,21.878,28.599,40.125,49.798,52.77c1.605,0.957,3.37,1.413,5.113,1.413
				c3.406,0,6.726-1.742,8.598-4.88C201.412,377.177,199.86,371.038,195.117,368.21z"/>
			<path d="M251,86c-19.299,0-35,15.701-35,35v22.981c0,19.299,15.701,35,35,35s35-15.701,35-35V121C286,101.701,270.299,86,251,86z
				 M266,143.981c0,8.271-6.729,15-15,15s-15-6.729-15-15V121c0-8.271,6.729-15,15-15s15,6.729,15,15V143.981z"/>
			<path d="M251,195c-19.299,0-35,15.701-35,35v130.18c0,19.299,15.701,35,35,35s35-15.701,35-35V230
				C286,210.701,270.299,195,251,195z M266,360.18c0,8.271-6.729,15-15,15s-15-6.729-15-15V230c0-8.271,6.729-15,15-15
				s15,6.729,15,15V360.18z"/>
			<path d="M251,452c-5.523,0-10,4.478-10,10v30c0,5.522,4.477,10,10,10c5.522,0,10-4.478,10-10v-30
				C261,456.478,256.522,452,251,452z"/>
		</g>
	</g>
</g>
<g>
</g>
<g>
</g>
<g>
</g>
<g>
</g>
<g>
</g>
<g>
</g>
<g>
</g>
<g>
</g>
<g>
</g>
<g>
</g>
<g>
</g>
<g>
</g>
<g>
</g>
<g>
</g>
<g>
</g>
</svg>
