<?xml version="1.0" encoding="iso-8859-1"?>
<!-- Generator: Adobe Illustrator 18.1.1, SVG Export Plug-In . SVG Version: 6.00 Build 0)  -->
<svg version="1.1" id="Capa_1" xmlns="http://www.w3.org/2000/svg" xmlns:xlink="http://www.w3.org/1999/xlink" x="0px" y="0px"
	 viewBox="0 0 42.757 42.757" style="enable-background:new 0 0 42.757 42.757;" xml:space="preserve">
<g>
	<path style="fill:#010002;" d="M17.745,37.992c2.575,1.38,6.947,1.194,9.433-0.342c5.924-3.661,15.429-11.039,15.429-20.715
		c0.063-0.597,0.15-1.2,0.15-1.827c0-6.224-5.047-11.274-11.274-11.274c-4.458,0-8.274,2.611-10.105,6.364
		c-1.83-3.753-5.647-6.364-10.104-6.364C5.047,3.834,0,8.885,0,15.108c0,0.653,0.085,1.287,0.194,1.907
		c-0.033,0-0.013,0.085,0.02,0.222c0.178,0.928,0.485,1.8,0.875,2.632C2.771,24.145,7.192,32.339,17.745,37.992z"/>
</g>
<g>
</g>
<g>
</g>
<g>
</g>
<g>
</g>
<g>
</g>
<g>
</g>
<g>
</g>
<g>
</g>
<g>
</g>
<g>
</g>
<g>
</g>
<g>
</g>
<g>
</g>
<g>
</g>
<g>
</g>
</svg>
