<?xml version="1.0" encoding="iso-8859-1"?>
<!-- Generator: Adobe Illustrator 19.0.0, SVG Export Plug-In . SVG Version: 6.00 Build 0)  -->
<svg version="1.1" id="Layer_1" xmlns="http://www.w3.org/2000/svg" xmlns:xlink="http://www.w3.org/1999/xlink" x="0px" y="0px"
	 viewBox="0 0 300 300" style="enable-background:new 0 0 300 300;" xml:space="preserve">
<g>
	<g>
		<g>
			<path d="M255.516,204.962L164.391,34.556c-0.115-0.215-0.243-0.419-0.379-0.615C159.544,14.53,142.131,0,121.385,0H83.891
				C59.766,0,40.135,19.631,40.135,43.75v212.5c0,24.119,19.631,43.75,43.756,43.75h37.494c6.354,0,12.391-1.374,17.846-3.822
				l39.304-8.747c4.866-1.051,9.434-2.897,13.57-5.431l42.924-18.444C256.785,253.144,266.042,226.969,255.516,204.962z
				 M52.635,256.25V43.75c0-17.231,14.019-31.25,31.256-31.25h37.494c17.231,0,31.25,14.019,31.25,31.25v0.203
				c0,0.011,0,0.023,0,0.034V256.25c0,12.281-7.123,22.924-17.453,28.03l-14.479,3.22H83.891
				C66.654,287.5,52.635,273.481,52.635,256.25z M175.866,275.231l-17.159,3.816c4.074-6.644,6.428-14.451,6.428-22.798V95.741
				l34.737,142.341c1.756,8.125,0.219,16.475-4.325,23.506c-2.459,3.812-5.633,6.974-9.318,9.357
				c-0.264,0.141-0.513,0.299-0.749,0.471C182.551,273.194,179.317,274.492,175.866,275.231z M229.866,252.169l-19.878,8.54
				c3.185-7.993,3.929-16.754,2.059-25.434L173.856,78.769L244.36,210.6C251.791,226.144,245.185,244.831,229.866,252.169z"/>
			<path d="M140.135,256.25v-37.5c0-3.456-2.794-6.25-6.25-6.25h-62.5c-3.456,0-6.25,2.794-6.25,6.25v37.5
				c0,3.456,2.794,6.25,6.25,6.25h62.5C137.341,262.5,140.135,259.706,140.135,256.25z M127.635,250h-50v-25h50V250z"/>
			<path d="M71.385,187.5h62.5c3.456,0,6.25-2.794,6.25-6.25v-37.5c0-3.456-2.794-6.25-6.25-6.25h-62.5
				c-3.456,0-6.25,2.794-6.25,6.25v37.5C65.135,184.706,67.929,187.5,71.385,187.5z M77.635,150h50v25h-50V150z"/>
			<path d="M71.385,112.5h62.5c3.456,0,6.25-2.794,6.25-6.25v-37.5c0-3.456-2.794-6.25-6.25-6.25h-62.5
				c-3.456,0-6.25,2.794-6.25,6.25v37.5C65.135,109.706,67.929,112.5,71.385,112.5z M77.635,75h50v25h-50V75z"/>
			<path d="M102.635,56.25c10.337,0,18.75-8.412,18.75-18.75s-8.413-18.75-18.75-18.75c-10.338,0-18.75,8.412-18.75,18.75
				S92.298,56.25,102.635,56.25z M102.635,31.25c3.45,0,6.25,2.8,6.25,6.25s-2.8,6.25-6.25,6.25s-6.25-2.8-6.25-6.25
				S99.185,31.25,102.635,31.25z"/>
		</g>
	</g>
</g>
<g>
</g>
<g>
</g>
<g>
</g>
<g>
</g>
<g>
</g>
<g>
</g>
<g>
</g>
<g>
</g>
<g>
</g>
<g>
</g>
<g>
</g>
<g>
</g>
<g>
</g>
<g>
</g>
<g>
</g>
</svg>
